<svg width="44" height="44" viewBox="0 0 44 44" fill="none" xmlns="http://www.w3.org/2000/svg">
<path d="M22 44C34.155 44 44 34.155 44 22C44 9.845 34.155 0 22 0C9.845 0 0 9.845 0 22C0 34.155 9.845 44 22 44Z" fill="#D9008D"/>
<path d="M32.0241 10.1272C31.9935 9.95057 31.9292 9.7818 31.8349 9.63059C31.7405 9.47937 31.618 9.34866 31.4743 9.24594C31.3305 9.14322 31.1684 9.07049 30.9973 9.03192C30.8261 8.99335 30.6491 8.9897 30.4765 9.02116L29.2892 9.23964L26.701 13.8825L32.491 12.831L32.0241 10.1272ZM25.8739 9.85413L20.3908 10.851L17.8026 15.4665L23.2858 14.4833L25.8739 9.85413ZM16.9888 11.4655L12.106 12.3394C11.7631 12.3998 11.4568 12.5949 11.2524 12.8832C11.048 13.1714 10.9618 13.53 11.012 13.8825L11.4656 16.6135L14.3873 16.081L16.9888 11.4655ZM11.6524 17.9791V30.2689C11.6524 30.9932 11.9335 31.6879 12.4339 32.2001C12.9343 32.7123 13.613 33 14.3206 33H30.3298C31.0374 33 31.7161 32.7123 32.2165 32.2001C32.7169 31.6879 32.998 30.9932 32.998 30.2689V17.9791H11.6524ZM25.3403 26.582L21.7916 29.313C21.5934 29.4652 21.3577 29.5579 21.1109 29.5806C20.8642 29.6034 20.6161 29.5554 20.3945 29.442C20.1729 29.3286 19.9865 29.1542 19.8563 28.9385C19.726 28.7228 19.657 28.4742 19.657 28.2206V22.7585C19.657 22.5049 19.726 22.2563 19.8563 22.0406C19.9865 21.8248 20.1729 21.6505 20.3945 21.5371C20.6161 21.4237 20.8642 21.3757 21.1109 21.3984C21.3577 21.4212 21.5934 21.5139 21.7916 21.666L25.3403 24.3971C25.506 24.5243 25.6404 24.6892 25.7331 24.8789C25.8257 25.0685 25.8739 25.2775 25.8739 25.4895C25.8739 25.7015 25.8257 25.9106 25.7331 26.1002C25.6404 26.2898 25.506 26.4548 25.3403 26.582Z" fill="#F6F6F6"/>
</svg>
