<svg width="120" height="120" viewBox="0 0 120 120" fill="none" xmlns="http://www.w3.org/2000/svg">
<path d="M120 60C120 79.05 111.12 96.03 97.27 107.02C97.17 107.1 97.08 107.17 96.99 107.24C87.46 114.71 75.6101 119.37 62.7101 119.93C61.8101 119.98 60.91 120 60 120C59.78 120 59.5601 120 59.3401 119.99C45.6501 119.85 33.05 115.11 23.02 107.25C22.92 107.17 22.8101 107.08 22.7001 107C8.87007 96.01 0 79.04 0 60C0 26.86 26.86 0 60 0C93.14 0 120 26.86 120 60Z" fill="#FBE5F4"/>
<path d="M79.37 85.94C60.17 80.34 45.37 83.61 40.37 85.94L43.87 97.94L76.37 96.94L79.37 85.94Z" fill="#550059"/>
<path d="M62.7101 119.93C75.6101 119.37 87.46 114.71 96.99 107.24C90.87 102.52 83.8 98.98 76.11 96.95H76.1C73.97 96.39 71.8001 95.94 69.5801 95.62C69.0501 95.54 68.52 95.47 67.99 95.41C65.7 95.14 63.36 95 61 95H59C56.63 95 54.3 95.14 52.01 95.41C51.4 95.48 50.7901 95.56 50.1801 95.65C47.9501 95.99 45.75 96.45 43.61 97.03H43.6C36.03 99.07 29.06 102.58 23.02 107.25C33.05 115.11 45.6501 119.85 59.3401 119.99L62.7101 119.93Z" fill="#79007F"/>
<path d="M84 68.99C88.42 68.99 92 65.41 92 60.99C92 56.57 88.42 52.99 84 52.99C79.58 52.99 76 56.57 76 60.99C76 65.41 79.58 68.99 84 68.99Z" fill="#D67B32"/>
<path d="M36 68.99C40.42 68.99 44 65.41 44 60.99C44 56.57 40.42 52.99 36 52.99C31.58 52.99 28 56.57 28 60.99C28 65.41 31.58 68.99 36 68.99Z" fill="#D67B32"/>
<path d="M60 78.99C64.42 78.99 68 82.57 68 86.99V94.99C68 99.41 64.42 102.99 60 102.99C55.58 102.99 52 99.41 52 94.99V86.99C52 82.57 55.58 78.99 60 78.99Z" fill="#D67B32"/>
<path d="M59.9501 19.94C73.2001 19.94 83.9501 30.69 83.9501 43.94V63.94C83.9501 77.19 73.2001 87.94 59.9501 87.94C46.7001 87.94 35.9501 77.19 35.9501 63.94V43.94C35.9501 30.69 46.7001 19.94 59.9501 19.94Z" fill="#ED9650"/>
<path d="M52.65 69.94H68.0901C69.7601 69.94 70.85 71.75 70.16 73.34C68.48 77.23 64.73 79.94 60.37 79.94C56.01 79.94 52.2501 77.23 50.5801 73.34C49.8901 71.75 50.98 69.94 52.65 69.94Z" fill="#8F005D"/>
<path d="M59.75 65.99V53.99" stroke="#401D0C" stroke-width="0.5"/>
<path d="M47 60.99C49.21 60.99 51 59.2 51 56.99C51 54.78 49.21 52.99 47 52.99C44.79 52.99 43 54.78 43 56.99C43 59.2 44.79 60.99 47 60.99Z" fill="#401D0C"/>
<path d="M86.87 70.94C88.2507 70.94 89.37 69.8207 89.37 68.44C89.37 67.0593 88.2507 65.94 86.87 65.94C85.4893 65.94 84.37 67.0593 84.37 68.44C84.37 69.8207 85.4893 70.94 86.87 70.94Z" fill="#401D0C"/>
<path d="M73 60.99C75.21 60.99 77 59.2 77 56.99C77 54.78 75.21 52.99 73 52.99C70.79 52.99 69 54.78 69 56.99C69 59.2 70.79 60.99 73 60.99Z" fill="#401D0C"/>
<path d="M60 52.99C61.66 52.99 63 54.33 63 55.99V63.99C63 65.65 61.66 66.99 60 66.99C58.34 66.99 57 65.65 57 63.99V55.99C57 54.33 58.34 52.99 60 52.99Z" fill="#DC7E33"/>
<path d="M79.25 50C78.96 51.07 77.8701 51.7 76.8001 51.41L72.9401 50.37C71.8701 50.08 71.24 48.99 71.53 47.92C71.82 46.85 72.91 46.22 73.98 46.51L77.8401 47.55C78.9101 47.84 79.54 48.93 79.25 50Z" fill="#401D0C"/>
<path d="M49.2499 47.92C49.5399 48.99 48.9 50.08 47.84 50.37L43.9799 51.41C42.9099 51.7 41.82 51.06 41.53 50C41.24 48.93 41.88 47.84 42.94 47.55L46.8 46.51C47.87 46.22 48.9599 46.86 49.2499 47.92Z" fill="#401D0C"/>
<path d="M41.26 25.25C45.21 15.85 56.0401 11.43 65.4401 15.38L91.74 26.43C92.92 26.92 93.47 28.28 92.97 29.45C89.02 38.85 78.19 43.27 68.79 39.32L42.49 28.27C41.31 27.78 40.76 26.42 41.26 25.25Z" fill="#4D0010"/>
<path d="M45.3001 24.68C53.8401 16.14 67.6801 16.14 76.2101 24.68L83.91 32.38C84.98 33.45 84.98 35.18 83.91 36.24C75.37 44.78 61.53 44.78 53 36.24L45.3001 28.54C44.2301 27.47 44.2301 25.74 45.3001 24.68Z" fill="#CD3D00"/>
<path d="M43.98 23.15C51.12 16.01 62.7001 16.01 69.8401 23.15L76.28 29.59C77.17 30.48 77.17 31.93 76.28 32.82C69.14 39.96 57.5601 39.96 50.4201 32.82L43.98 26.38C43.09 25.49 43.09 24.04 43.98 23.15Z" fill="#4D0010"/>
<path d="M56.63 17.44C59.46 27.24 53.82 37.48 44.02 40.31L36.3599 42.53C35.1399 42.88 33.85 42.18 33.5 40.95C30.67 31.15 36.3099 20.91 46.1099 18.08L53.77 15.86C54.99 15.51 56.28 16.21 56.63 17.44Z" fill="#4D0010"/>
<path d="M59.3401 119.99C45.6501 119.85 33.05 115.11 23.02 107.25C22.92 107.17 22.8101 107.08 22.7001 107C26.7401 103.28 32.32 98.84 37.37 97.95C44.17 96.75 39.37 91.45 40.14 85.95C40.23 85.98 40.31 86 40.4 86.04C46.13 87.89 47.7701 92.72 50.1801 95.65C50.8301 96.46 51.54 97.12 52.41 97.54H52.42C52.51 97.59 52.6001 97.63 52.7001 97.67C52.9901 97.8 53.3 97.89 53.64 97.95L54.3401 100.65L59.3401 119.99Z" fill="#F7A8FA"/>
<path d="M97.27 107.02C97.17 107.1 97.08 107.17 96.99 107.24C87.46 114.71 75.6101 119.37 62.7101 119.93L67.64 97.95C67.98 97.76 68.27 97.5 68.55 97.18C68.92 96.75 69.2501 96.22 69.5801 95.62C71.1301 92.83 72.81 88.53 79.29 86.23C79.56 86.13 79.85 86.04 80.14 85.95C80.64 89.95 77.04 94.95 80.64 96.95C84.47 99.08 90.83 101.2 97.27 107.02Z" fill="#F7A8FA"/>
</svg>
