<svg width="13" height="20" viewBox="0 0 13 20" fill="none" xmlns="http://www.w3.org/2000/svg">
<path fill-rule="evenodd" clip-rule="evenodd" d="M10.0935 9.76167C10.0935 11.6712 8.48161 13.2236 6.49736 13.2236C4.5131 13.2236 2.89844 11.6712 2.89844 9.76167V3.46171C2.89844 1.55222 4.5131 0 6.49736 0C8.48161 0 10.0935 1.55222 10.0935 3.46171V9.76167ZM7.24052 18.5717H10.5609C10.9731 18.5717 11.3028 18.8907 11.3028 19.286C11.3028 19.681 10.9731 20.0003 10.5609 20.0003H2.43624C2.02688 20.0003 1.69423 19.681 1.69423 19.286C1.69423 18.8907 2.02688 18.5717 2.43624 18.5717H5.75936V16.2311C2.52145 15.8741 0 13.224 0 10.017C0 9.62171 0.329722 9.30273 0.741923 9.30273C1.15128 9.30273 1.48385 9.62171 1.48385 10.017C1.48385 12.6788 3.7325 14.843 6.49851 14.843C9.26736 14.843 11.516 12.6788 11.516 10.017C11.516 9.62171 11.8486 9.30273 12.258 9.30273C12.6702 9.30273 13 9.62171 13 10.017C13 13.2265 10.4784 15.8763 7.24052 16.2311V18.5717Z" fill="white"/>
</svg>
